<svg width="26" height="26" viewBox="0 0 26 26" fill="none" xmlns="http://www.w3.org/2000/svg">
<path d="M26 18.9048C26 22.8157 22.8216 25.9941 18.9107 25.9941V24.2218C21.8646 24.2218 24.2277 21.8587 24.2277 18.9048H26ZM0.00590767 7.0893C0.00590767 3.17837 3.18428 0 7.09521 0V1.77232C4.14133 1.77232 1.77823 4.13542 1.77823 7.0893H0.00590767ZM8.27676 3.92274L2.85344 9.35787C-0.951148 13.1625 -0.951148 19.342 2.85344 23.1466C6.65803 26.9511 12.8375 26.9511 16.6421 23.1466L24.9957 14.7694C25.5746 14.214 25.5746 13.2806 24.9957 12.7017C24.8585 12.5641 24.6955 12.455 24.5161 12.3805C24.3366 12.3061 24.1443 12.2678 23.95 12.2678C23.7557 12.2678 23.5634 12.3061 23.3839 12.3805C23.2045 12.455 23.0415 12.5641 22.9043 12.7017L17.6819 17.9241L16.843 17.0852L24.5703 9.35787C25.1493 8.77891 25.1493 7.84549 24.5703 7.26653C23.9914 6.68757 23.0461 6.68757 22.4554 7.26653L15.5905 14.1786L14.7753 13.3161L22.8925 5.17519C23.4715 4.59623 23.4715 3.6628 22.8925 3.08384C22.3136 2.50488 21.3801 2.50488 20.8012 3.08384L12.6603 11.2247L11.8214 10.3976L18.3199 3.92274C18.9107 3.34379 18.9107 2.41036 18.3199 1.8314C17.7292 1.25244 16.8075 1.25244 16.2286 1.8314L7.22518 10.8348C7.93014 11.7442 8.27944 12.8793 8.20767 14.0277C8.13589 15.1761 7.64797 16.2589 6.83527 17.0734L5.99637 16.2345C6.66016 15.5699 7.03301 14.6689 7.03301 13.7296C7.03301 12.7903 6.66016 11.8893 5.99637 11.2247L5.58282 10.8112L10.3917 6.00227C10.9707 5.42331 10.9707 4.48989 10.3917 3.91093C9.80095 3.34379 8.86753 3.34379 8.27676 3.92274Z" fill="#FFD3B6"/>
</svg>
